<?xml version="1.0" encoding="utf-8"?>
<!-- Generator: Adobe Illustrator 21.0.0, SVG Export Plug-In . SVG Version: 6.00 Build 0)  -->
<svg version="1.1" id="Layer_1" xmlns="http://www.w3.org/2000/svg" xmlns:xlink="http://www.w3.org/1999/xlink" x="0px" y="0px"
	 viewBox="0 0 200 100" style="enable-background:new 0 0 200 100;" xml:space="preserve">
<style type="text/css">
	.st0{fill:none;}
	.st1{fill:#B21818;}
	.st2{fill:#9CFC8B;}
	.st3{fill:#FFFFFF;}
	.st4{fill:#DB3D3C;}
	.st5{fill:#686868;}
	.st6{fill:#E04848;}
	.st7{fill:#565353;}
	.st8{font-family:'NanumSquareB';}
	.st9{font-size:28.5279px;}
	.st10{font-size:36.0807px;}
</style>
<line class="st0" x1="2.5" y1="49.4" x2="29.9" y2="36.9"/>
<polygon class="st1" points="40.3,66.1 56.3,72.8 56.3,29.5 40.3,21 "/>
<line x1="13" y1="50.3" x2="13" y2="62.3"/>
<ellipse transform="matrix(0.5478 -0.8366 0.8366 0.5478 -29.2268 48.732)" class="st2" cx="30.5" cy="51.4" rx="0.6" ry="1.1"/>
<ellipse transform="matrix(0.7952 -0.6064 0.6064 0.7952 -24.7648 29.4889)" class="st2" cx="31.3" cy="51.4" rx="1.1" ry="0.6"/>
<line class="st0" x1="22.7" y1="40.7" x2="41.9" y2="30.3"/>
<polygon class="st0" points="40.5,28.7 23,35.7 23.3,37.4 40.8,30.5 "/>
<polygon class="st3" points="40.3,66.1 24.3,72.8 24.3,29.5 40.3,21 "/>
<polygon class="st4" points="32.3,35.4 29.1,37.1 28.9,33 32.1,31.3 "/>
<polygon class="st5" points="32.5,40.5 29.4,42.1 29.2,38 32.4,36.4 "/>
<polygon class="st4" points="36.5,38.7 33.3,40.3 33.1,36.3 36.2,34.6 "/>
<polygon class="st1" points="16.9,72.7 24.6,76.7 24.6,34.6 16.9,28.7 "/>
<polygon class="st6" points="15.3,75.6 12.9,82.2 12.9,38.9 15.3,30.4 "/>
<polygon class="st6" points="11.3,88.3 8.9,94.9 8.9,51.6 11.3,43.1 "/>
<polygon class="st6" points="40.4,21.8 23.5,33 23.9,27 40.8,15.6 "/>
<polygon class="st7" points="40.3,21.8 57.5,36.5 57.4,29.6 40.6,15.5 "/>
<polygon class="st7" points="56.3,30.8 52.4,29.9 52.4,20.8 56.3,21.8 "/>
<polygon class="st3" points="153.6,97.1 -85.5,95.5 -84.4,62.3 154.8,58.4 "/>
<polygon class="st7" points="36.2,33.2 33,34.9 32.8,30.8 36,29.1 "/>
<text transform="matrix(1 0 0 1 62.3271 56.3184)"><tspan x="0" y="0" class="st8 st9">내</tspan><tspan x="26" y="0" class="st1 st8 st10">집</tspan><tspan x="58.8" y="0" class="st8 st9">꾸미기</tspan></text>
</svg>
